<mxfile host="app.diagrams.net" modified="2021-09-15T11:44:57.092Z" agent="5.0 (Macintosh; Intel Mac OS X 10_15_7) AppleWebKit/537.36 (KHTML, like Gecko) Chrome/93.0.4577.63 Safari/537.36" etag="m5TITzMIVMpwP7754YQ3" version="15.1.4" type="github">
  <diagram id="Lh61h2_Bn6EFPj23oarb" name="Page-1">
    <mxGraphModel dx="3346" dy="1712" grid="1" gridSize="10" guides="1" tooltips="1" connect="1" arrows="1" fold="1" page="1" pageScale="1" pageWidth="850" pageHeight="1100" math="0" shadow="0">
      <root>
        <mxCell id="0" />
        <mxCell id="1" parent="0" />
        <mxCell id="-ZquV43uJ-LFZKVokxAO-1" value="Controller" style="swimlane;strokeColor=#000000;fillColor=#A6CCFF;" vertex="1" parent="1">
          <mxGeometry x="260" y="440" width="420" height="310" as="geometry" />
        </mxCell>
        <mxCell id="-ZquV43uJ-LFZKVokxAO-2" value="AppDelegate" style="rounded=1;whiteSpace=wrap;html=1;fillColor=#A6CCFF;" vertex="1" parent="-ZquV43uJ-LFZKVokxAO-1">
          <mxGeometry x="245" y="70" width="110" height="30" as="geometry" />
        </mxCell>
        <mxCell id="-ZquV43uJ-LFZKVokxAO-3" value="" style="rounded=1;whiteSpace=wrap;html=1;strokeColor=#000000;fillColor=#A6CCFF;" vertex="1" parent="-ZquV43uJ-LFZKVokxAO-1">
          <mxGeometry x="230" y="170" width="125" height="30" as="geometry" />
        </mxCell>
        <mxCell id="-ZquV43uJ-LFZKVokxAO-4" value="" style="rounded=1;whiteSpace=wrap;html=1;strokeColor=#000000;fillColor=#A6CCFF;" vertex="1" parent="-ZquV43uJ-LFZKVokxAO-1">
          <mxGeometry x="237.5" y="180" width="125" height="30" as="geometry" />
        </mxCell>
        <mxCell id="-ZquV43uJ-LFZKVokxAO-5" value="rootViewController" style="rounded=1;whiteSpace=wrap;html=1;strokeColor=#000000;fillColor=#A6CCFF;" vertex="1" parent="-ZquV43uJ-LFZKVokxAO-1">
          <mxGeometry x="250" y="190" width="125" height="30" as="geometry" />
        </mxCell>
        <mxCell id="-ZquV43uJ-LFZKVokxAO-6" value="UIApplication" style="rounded=1;whiteSpace=wrap;html=1;fillColor=#A6CCFF;" vertex="1" parent="-ZquV43uJ-LFZKVokxAO-1">
          <mxGeometry x="30" y="70" width="110" height="30" as="geometry" />
        </mxCell>
        <mxCell id="-ZquV43uJ-LFZKVokxAO-7" value="" style="endArrow=classic;html=1;exitX=0.5;exitY=1;exitDx=0;exitDy=0;dashed=1;" edge="1" parent="-ZquV43uJ-LFZKVokxAO-1" source="-ZquV43uJ-LFZKVokxAO-2">
          <mxGeometry width="50" height="50" relative="1" as="geometry">
            <mxPoint x="430" y="140" as="sourcePoint" />
            <mxPoint x="300" y="170" as="targetPoint" />
          </mxGeometry>
        </mxCell>
        <mxCell id="-ZquV43uJ-LFZKVokxAO-8" value="" style="curved=1;endArrow=classic;html=1;dashed=1;strokeWidth=5;strokeColor=#A6CCFF;" edge="1" parent="-ZquV43uJ-LFZKVokxAO-1">
          <mxGeometry width="50" height="50" relative="1" as="geometry">
            <mxPoint x="105" y="160" as="sourcePoint" />
            <mxPoint x="95" y="150" as="targetPoint" />
            <Array as="points">
              <mxPoint x="165" y="210" />
              <mxPoint x="55" y="240" />
              <mxPoint x="35" y="190" />
            </Array>
          </mxGeometry>
        </mxCell>
        <mxCell id="-ZquV43uJ-LFZKVokxAO-9" value="EVENTS" style="text;html=1;strokeColor=none;fillColor=none;align=center;verticalAlign=middle;whiteSpace=wrap;rounded=0;" vertex="1" parent="-ZquV43uJ-LFZKVokxAO-1">
          <mxGeometry x="70" y="190" width="40" height="20" as="geometry" />
        </mxCell>
        <mxCell id="-ZquV43uJ-LFZKVokxAO-10" value="" style="endArrow=classic;html=1;strokeColor=#000000;strokeWidth=1;fillColor=#000000;entryX=0;entryY=0.5;entryDx=0;entryDy=0;exitX=1;exitY=0.5;exitDx=0;exitDy=0;" edge="1" parent="-ZquV43uJ-LFZKVokxAO-1" source="-ZquV43uJ-LFZKVokxAO-6" target="-ZquV43uJ-LFZKVokxAO-2">
          <mxGeometry width="50" height="50" relative="1" as="geometry">
            <mxPoint x="160" y="110" as="sourcePoint" />
            <mxPoint x="95" y="160" as="targetPoint" />
          </mxGeometry>
        </mxCell>
        <mxCell id="-ZquV43uJ-LFZKVokxAO-11" value="View" style="swimlane;strokeColor=#000000;fillColor=#B9E0A5;" vertex="1" parent="1">
          <mxGeometry x="762.5" y="440" width="240" height="310" as="geometry" />
        </mxCell>
        <mxCell id="-ZquV43uJ-LFZKVokxAO-12" value="" style="rounded=1;whiteSpace=wrap;html=1;strokeColor=#000000;fillColor=#B9E0A5;" vertex="1" parent="-ZquV43uJ-LFZKVokxAO-11">
          <mxGeometry x="40" y="180" width="125" height="30" as="geometry" />
        </mxCell>
        <mxCell id="-ZquV43uJ-LFZKVokxAO-13" value="UIWINDOW" style="rounded=1;whiteSpace=wrap;html=1;strokeColor=#000000;fillColor=#B9E0A5;" vertex="1" parent="-ZquV43uJ-LFZKVokxAO-11">
          <mxGeometry x="47.5" y="55" width="120" height="60" as="geometry" />
        </mxCell>
        <mxCell id="-ZquV43uJ-LFZKVokxAO-14" value="Models" style="swimlane;strokeColor=#000000;fillColor=#EA6B66;" vertex="1" parent="1">
          <mxGeometry x="260" y="90" width="420" height="310" as="geometry" />
        </mxCell>
        <mxCell id="-ZquV43uJ-LFZKVokxAO-15" value="AppContext" style="rounded=1;whiteSpace=wrap;html=1;fillColor=#EA6B66;" vertex="1" parent="-ZquV43uJ-LFZKVokxAO-14">
          <mxGeometry x="240" y="250" width="110" height="30" as="geometry" />
        </mxCell>
        <mxCell id="-ZquV43uJ-LFZKVokxAO-16" value="spatialDataContext" style="rounded=1;whiteSpace=wrap;html=1;fillColor=#EA6B66;" vertex="1" parent="-ZquV43uJ-LFZKVokxAO-14">
          <mxGeometry x="260" y="90" width="110" height="30" as="geometry" />
        </mxCell>
        <mxCell id="-ZquV43uJ-LFZKVokxAO-17" value="commandProcessor" style="rounded=1;whiteSpace=wrap;html=1;fillColor=#EA6B66;" vertex="1" parent="-ZquV43uJ-LFZKVokxAO-14">
          <mxGeometry x="70" y="90" width="110" height="30" as="geometry" />
        </mxCell>
        <mxCell id="-ZquV43uJ-LFZKVokxAO-18" value="DataStructures" style="rounded=1;whiteSpace=wrap;html=1;fillColor=#EA6B66;" vertex="1" parent="-ZquV43uJ-LFZKVokxAO-14">
          <mxGeometry x="30" y="250" width="110" height="30" as="geometry" />
        </mxCell>
        <mxCell id="-ZquV43uJ-LFZKVokxAO-19" value="eventProcessor" style="rounded=1;whiteSpace=wrap;html=1;fillColor=#EA6B66;" vertex="1" parent="-ZquV43uJ-LFZKVokxAO-14">
          <mxGeometry x="165" y="50" width="110" height="30" as="geometry" />
        </mxCell>
        <mxCell id="-ZquV43uJ-LFZKVokxAO-20" value="" style="endArrow=classic;html=1;exitX=0;exitY=0.5;exitDx=0;exitDy=0;entryX=1;entryY=0.5;entryDx=0;entryDy=0;" edge="1" parent="-ZquV43uJ-LFZKVokxAO-14" source="-ZquV43uJ-LFZKVokxAO-15" target="-ZquV43uJ-LFZKVokxAO-18">
          <mxGeometry width="50" height="50" relative="1" as="geometry">
            <mxPoint x="430" y="420" as="sourcePoint" />
            <mxPoint x="480" y="370" as="targetPoint" />
          </mxGeometry>
        </mxCell>
        <mxCell id="-ZquV43uJ-LFZKVokxAO-21" value="audioEngine" style="rounded=1;whiteSpace=wrap;html=1;fillColor=#EA6B66;" vertex="1" parent="-ZquV43uJ-LFZKVokxAO-14">
          <mxGeometry x="300" y="140" width="110" height="30" as="geometry" />
        </mxCell>
        <mxCell id="-ZquV43uJ-LFZKVokxAO-22" value="" style="endArrow=classic;html=1;strokeColor=#000000;strokeWidth=1;fillColor=#000000;exitX=1;exitY=0.5;exitDx=0;exitDy=0;" edge="1" parent="-ZquV43uJ-LFZKVokxAO-14" source="-ZquV43uJ-LFZKVokxAO-15">
          <mxGeometry width="50" height="50" relative="1" as="geometry">
            <mxPoint x="340" y="250" as="sourcePoint" />
            <mxPoint x="390" y="171" as="targetPoint" />
            <Array as="points">
              <mxPoint x="390" y="265" />
            </Array>
          </mxGeometry>
        </mxCell>
        <mxCell id="-ZquV43uJ-LFZKVokxAO-23" value="" style="endArrow=classic;html=1;strokeColor=#000000;strokeWidth=1;fillColor=#000000;exitX=0.5;exitY=0;exitDx=0;exitDy=0;" edge="1" parent="-ZquV43uJ-LFZKVokxAO-14" source="-ZquV43uJ-LFZKVokxAO-15">
          <mxGeometry width="50" height="50" relative="1" as="geometry">
            <mxPoint x="220" y="460" as="sourcePoint" />
            <mxPoint x="296" y="122" as="targetPoint" />
          </mxGeometry>
        </mxCell>
        <mxCell id="-ZquV43uJ-LFZKVokxAO-24" value="" style="endArrow=classic;html=1;strokeColor=#000000;strokeWidth=1;fillColor=#000000;exitX=0.094;exitY=-0.033;exitDx=0;exitDy=0;exitPerimeter=0;entryX=0.821;entryY=1.033;entryDx=0;entryDy=0;entryPerimeter=0;" edge="1" parent="-ZquV43uJ-LFZKVokxAO-14" target="-ZquV43uJ-LFZKVokxAO-17">
          <mxGeometry width="50" height="50" relative="1" as="geometry">
            <mxPoint x="260.0000000000001" y="250" as="sourcePoint" />
            <mxPoint x="129.9800000000002" y="174.98000000000002" as="targetPoint" />
            <Array as="points">
              <mxPoint x="259.65999999999997" y="230.99" />
              <mxPoint x="160" y="231" />
            </Array>
          </mxGeometry>
        </mxCell>
        <mxCell id="-ZquV43uJ-LFZKVokxAO-25" value="geoLocation" style="rounded=1;whiteSpace=wrap;html=1;fillColor=#EA6B66;" vertex="1" parent="-ZquV43uJ-LFZKVokxAO-14">
          <mxGeometry x="40" y="140" width="110" height="30" as="geometry" />
        </mxCell>
        <mxCell id="-ZquV43uJ-LFZKVokxAO-26" value="BingContext" style="rounded=1;whiteSpace=wrap;html=1;fillColor=#EA6B66;" vertex="1" parent="-ZquV43uJ-LFZKVokxAO-14">
          <mxGeometry x="20" y="190" width="110" height="30" as="geometry" />
        </mxCell>
        <mxCell id="-ZquV43uJ-LFZKVokxAO-27" value="" style="endArrow=classic;html=1;entryX=0.909;entryY=1.034;entryDx=0;entryDy=0;entryPerimeter=0;exitX=0;exitY=0;exitDx=0;exitDy=0;" edge="1" parent="-ZquV43uJ-LFZKVokxAO-14" source="-ZquV43uJ-LFZKVokxAO-15" target="-ZquV43uJ-LFZKVokxAO-26">
          <mxGeometry width="50" height="50" relative="1" as="geometry">
            <mxPoint x="160" y="340" as="sourcePoint" />
            <mxPoint x="210" y="290" as="targetPoint" />
            <Array as="points">
              <mxPoint x="120" y="240" />
            </Array>
          </mxGeometry>
        </mxCell>
        <mxCell id="-ZquV43uJ-LFZKVokxAO-28" value="" style="endArrow=classic;html=1;exitX=0.5;exitY=0;exitDx=0;exitDy=0;" edge="1" parent="1" source="-ZquV43uJ-LFZKVokxAO-2">
          <mxGeometry width="50" height="50" relative="1" as="geometry">
            <mxPoint x="527" y="500" as="sourcePoint" />
            <mxPoint x="560" y="370" as="targetPoint" />
          </mxGeometry>
        </mxCell>
        <mxCell id="-ZquV43uJ-LFZKVokxAO-29" value="" style="rounded=1;whiteSpace=wrap;html=1;strokeColor=#000000;fillColor=#B9E0A5;" vertex="1" parent="1">
          <mxGeometry x="810" y="630" width="125" height="30" as="geometry" />
        </mxCell>
        <mxCell id="-ZquV43uJ-LFZKVokxAO-30" value="Views + UI Objects" style="rounded=1;whiteSpace=wrap;html=1;strokeColor=#000000;fillColor=#B9E0A5;" vertex="1" parent="1">
          <mxGeometry x="820" y="640" width="125" height="30" as="geometry" />
        </mxCell>
        <mxCell id="-ZquV43uJ-LFZKVokxAO-31" value="" style="endArrow=classic;html=1;exitX=1;exitY=0.5;exitDx=0;exitDy=0;entryX=0;entryY=0.75;entryDx=0;entryDy=0;" edge="1" parent="1" source="-ZquV43uJ-LFZKVokxAO-5" target="-ZquV43uJ-LFZKVokxAO-12">
          <mxGeometry width="50" height="50" relative="1" as="geometry">
            <mxPoint x="690" y="450" as="sourcePoint" />
            <mxPoint x="740" y="400" as="targetPoint" />
          </mxGeometry>
        </mxCell>
        <mxCell id="-ZquV43uJ-LFZKVokxAO-32" value="" style="endArrow=classic;html=1;exitX=1;exitY=0.5;exitDx=0;exitDy=0;entryX=0;entryY=0.5;entryDx=0;entryDy=0;" edge="1" parent="1" source="-ZquV43uJ-LFZKVokxAO-2" target="-ZquV43uJ-LFZKVokxAO-13">
          <mxGeometry width="50" height="50" relative="1" as="geometry">
            <mxPoint x="690" y="580" as="sourcePoint" />
            <mxPoint x="740" y="530" as="targetPoint" />
          </mxGeometry>
        </mxCell>
        <mxCell id="-ZquV43uJ-LFZKVokxAO-33" value="" style="endArrow=classic;html=1;strokeColor=#000000;strokeWidth=1;exitX=0.5;exitY=1;exitDx=0;exitDy=0;fillColor=#000000;" edge="1" parent="1" source="-ZquV43uJ-LFZKVokxAO-6">
          <mxGeometry width="50" height="50" relative="1" as="geometry">
            <mxPoint x="520" y="420" as="sourcePoint" />
            <mxPoint x="345" y="590" as="targetPoint" />
          </mxGeometry>
        </mxCell>
        <mxCell id="-ZquV43uJ-LFZKVokxAO-34" value="" style="endArrow=classic;html=1;strokeColor=#000000;strokeWidth=1;fillColor=#000000;exitX=0.094;exitY=-0.033;exitDx=0;exitDy=0;exitPerimeter=0;entryX=0.5;entryY=1;entryDx=0;entryDy=0;" edge="1" parent="1" target="-ZquV43uJ-LFZKVokxAO-19">
          <mxGeometry width="50" height="50" relative="1" as="geometry">
            <mxPoint x="540" y="339.0100000000002" as="sourcePoint" />
            <mxPoint x="440.30999999999995" y="210" as="targetPoint" />
            <Array as="points">
              <mxPoint x="539.66" y="320" />
              <mxPoint x="480" y="320" />
            </Array>
          </mxGeometry>
        </mxCell>
        <mxCell id="-ZquV43uJ-LFZKVokxAO-35" value="" style="endArrow=none;html=1;strokeWidth=2;fillColor=#000000;" edge="1" parent="1">
          <mxGeometry width="50" height="50" relative="1" as="geometry">
            <mxPoint x="130" y="810" as="sourcePoint" />
            <mxPoint x="130" y="40" as="targetPoint" />
            <Array as="points">
              <mxPoint x="130" y="420" />
            </Array>
          </mxGeometry>
        </mxCell>
        <mxCell id="-ZquV43uJ-LFZKVokxAO-36" value="" style="endArrow=none;html=1;strokeWidth=2;fillColor=#000000;" edge="1" parent="1">
          <mxGeometry width="50" height="50" relative="1" as="geometry">
            <mxPoint x="1080" y="809" as="sourcePoint" />
            <mxPoint x="130" y="809" as="targetPoint" />
            <Array as="points">
              <mxPoint x="590" y="809" />
            </Array>
          </mxGeometry>
        </mxCell>
        <mxCell id="-ZquV43uJ-LFZKVokxAO-37" value="" style="endArrow=none;html=1;strokeWidth=2;fillColor=#000000;startArrow=none;" edge="1" parent="1">
          <mxGeometry width="50" height="50" relative="1" as="geometry">
            <mxPoint x="1080" y="240" as="sourcePoint" />
            <mxPoint x="1080" y="40" as="targetPoint" />
          </mxGeometry>
        </mxCell>
        <mxCell id="-ZquV43uJ-LFZKVokxAO-38" value="" style="endArrow=none;html=1;strokeWidth=2;fillColor=#000000;" edge="1" parent="1">
          <mxGeometry width="50" height="50" relative="1" as="geometry">
            <mxPoint x="1080" y="40" as="sourcePoint" />
            <mxPoint x="130" y="40" as="targetPoint" />
          </mxGeometry>
        </mxCell>
        <mxCell id="-ZquV43uJ-LFZKVokxAO-39" value="" style="endArrow=none;html=1;strokeWidth=2;fillColor=#000000;" edge="1" parent="1">
          <mxGeometry width="50" height="50" relative="1" as="geometry">
            <mxPoint x="1080" y="810" as="sourcePoint" />
            <mxPoint x="1080" y="240" as="targetPoint" />
          </mxGeometry>
        </mxCell>
        <mxCell id="-ZquV43uJ-LFZKVokxAO-48" value="&lt;b&gt;CORE SOUNDSCAPE&lt;/b&gt;" style="text;html=1;strokeColor=none;fillColor=none;align=center;verticalAlign=middle;whiteSpace=wrap;rounded=0;" vertex="1" parent="1">
          <mxGeometry x="920" y="50" width="130" height="30" as="geometry" />
        </mxCell>
        <mxCell id="-ZquV43uJ-LFZKVokxAO-49" value="" style="endArrow=classic;html=1;strokeColor=#000000;strokeWidth=1;fillColor=#000000;exitX=0.094;exitY=-0.033;exitDx=0;exitDy=0;exitPerimeter=0;" edge="1" parent="1">
          <mxGeometry width="50" height="50" relative="1" as="geometry">
            <mxPoint x="500" y="340" as="sourcePoint" />
            <mxPoint x="400" y="260" as="targetPoint" />
            <Array as="points">
              <mxPoint x="499.65999999999997" y="320.99" />
              <mxPoint x="400" y="321" />
            </Array>
          </mxGeometry>
        </mxCell>
        <mxCell id="-ZquV43uJ-LFZKVokxAO-51" value="" style="aspect=fixed;html=1;points=[];align=center;image;fontSize=12;image=img/lib/mscae/API_Management.svg;" vertex="1" parent="1">
          <mxGeometry x="545" y="1110" width="97.62" height="82" as="geometry" />
        </mxCell>
        <mxCell id="-ZquV43uJ-LFZKVokxAO-52" value="" style="aspect=fixed;html=1;points=[];align=center;image;fontSize=12;image=img/lib/mscae/Cognitive_Services.svg;dashed=1;strokeColor=#000000;strokeWidth=1;" vertex="1" parent="1">
          <mxGeometry x="700" y="1360" width="50" height="30" as="geometry" />
        </mxCell>
        <mxCell id="-ZquV43uJ-LFZKVokxAO-55" value="" style="edgeStyle=orthogonalEdgeStyle;rounded=0;orthogonalLoop=1;jettySize=auto;html=1;" edge="1" parent="1" source="-ZquV43uJ-LFZKVokxAO-56" target="-ZquV43uJ-LFZKVokxAO-51">
          <mxGeometry relative="1" as="geometry">
            <Array as="points">
              <mxPoint x="589" y="1220" />
              <mxPoint x="589" y="1220" />
            </Array>
          </mxGeometry>
        </mxCell>
        <mxCell id="-ZquV43uJ-LFZKVokxAO-56" value="" style="aspect=fixed;html=1;points=[];align=center;image;fontSize=12;image=img/lib/mscae/Client_Apps.svg;dashed=1;strokeColor=#000000;strokeWidth=1;" vertex="1" parent="1">
          <mxGeometry x="568.81" y="1350" width="50" height="50" as="geometry" />
        </mxCell>
        <mxCell id="-ZquV43uJ-LFZKVokxAO-57" value="" style="edgeStyle=orthogonalEdgeStyle;rounded=0;orthogonalLoop=1;jettySize=auto;html=1;" edge="1" parent="1" source="-ZquV43uJ-LFZKVokxAO-58" target="-ZquV43uJ-LFZKVokxAO-56">
          <mxGeometry relative="1" as="geometry" />
        </mxCell>
        <mxCell id="-ZquV43uJ-LFZKVokxAO-58" value="" style="aspect=fixed;pointerEvents=1;shadow=0;dashed=0;html=1;strokeColor=none;labelPosition=center;verticalLabelPosition=bottom;verticalAlign=top;align=center;fillColor=#00188D;shape=mxgraph.azure.file" vertex="1" parent="1">
          <mxGeometry x="410" y="1350" width="47" height="50" as="geometry" />
        </mxCell>
        <mxCell id="-ZquV43uJ-LFZKVokxAO-59" value="&lt;font style=&quot;font-size: 17px&quot;&gt;&lt;b&gt;ImageUpload&lt;br&gt;Blob Storage&lt;br&gt;&lt;/b&gt;&lt;/font&gt;" style="text;html=1;strokeColor=none;fillColor=none;align=center;verticalAlign=middle;whiteSpace=wrap;rounded=0;dashed=1;" vertex="1" parent="1">
          <mxGeometry x="430" y="1420" width="50" height="20" as="geometry" />
        </mxCell>
        <mxCell id="-ZquV43uJ-LFZKVokxAO-60" value="&lt;font style=&quot;font-size: 17px&quot;&gt;&lt;b&gt;EventGrid&lt;br&gt;&lt;/b&gt;&lt;/font&gt;" style="text;html=1;strokeColor=none;fillColor=none;align=center;verticalAlign=middle;whiteSpace=wrap;rounded=0;dashed=1;" vertex="1" parent="1">
          <mxGeometry x="568.81" y="1410" width="50" height="20" as="geometry" />
        </mxCell>
        <mxCell id="-ZquV43uJ-LFZKVokxAO-61" value="&lt;font style=&quot;font-size: 17px&quot;&gt;&lt;b&gt;Cognitive Services&lt;br&gt;&lt;/b&gt;&lt;/font&gt;" style="text;html=1;strokeColor=none;fillColor=none;align=center;verticalAlign=middle;whiteSpace=wrap;rounded=0;dashed=1;" vertex="1" parent="1">
          <mxGeometry x="700" y="1410" width="50" height="20" as="geometry" />
        </mxCell>
        <mxCell id="-ZquV43uJ-LFZKVokxAO-65" value="" style="endArrow=classic;html=1;strokeColor=#000000;strokeWidth=1;fillColor=#000000;exitX=-0.061;exitY=0.232;exitDx=0;exitDy=0;exitPerimeter=0;" edge="1" parent="1" source="-ZquV43uJ-LFZKVokxAO-51">
          <mxGeometry width="50" height="50" relative="1" as="geometry">
            <mxPoint x="480.49" y="1082.01" as="sourcePoint" />
            <mxPoint x="430" y="1340" as="targetPoint" />
            <Array as="points">
              <mxPoint x="430" y="1130" />
            </Array>
          </mxGeometry>
        </mxCell>
        <mxCell id="-ZquV43uJ-LFZKVokxAO-76" value="" style="endArrow=classic;html=1;entryX=0;entryY=0.201;entryDx=0;entryDy=0;entryPerimeter=0;" edge="1" parent="1">
          <mxGeometry width="50" height="50" relative="1" as="geometry">
            <mxPoint x="1080" y="800" as="sourcePoint" />
            <mxPoint x="1280" y="800.3999999999996" as="targetPoint" />
          </mxGeometry>
        </mxCell>
        <mxCell id="-ZquV43uJ-LFZKVokxAO-77" value="&lt;font style=&quot;font-size: 17px&quot;&gt;...rootViewController --&amp;gt;&lt;/font&gt;" style="text;html=1;strokeColor=none;fillColor=none;align=center;verticalAlign=middle;whiteSpace=wrap;rounded=0;" vertex="1" parent="1">
          <mxGeometry x="1120" y="700" width="120" height="60" as="geometry" />
        </mxCell>
        <mxCell id="-ZquV43uJ-LFZKVokxAO-78" value="HARDWARE" style="rounded=1;whiteSpace=wrap;html=1;fillColor=#dae8fc;strokeColor=#6c8ebf;" vertex="1" parent="1">
          <mxGeometry x="830" y="960" width="120" height="60" as="geometry" />
        </mxCell>
        <mxCell id="-ZquV43uJ-LFZKVokxAO-81" value="" style="endArrow=classic;html=1;" edge="1" parent="1">
          <mxGeometry width="50" height="50" relative="1" as="geometry">
            <mxPoint x="890" y="960" as="sourcePoint" />
            <mxPoint x="890" y="810" as="targetPoint" />
            <Array as="points">
              <mxPoint x="889.5" y="950" />
            </Array>
          </mxGeometry>
        </mxCell>
        <mxCell id="-ZquV43uJ-LFZKVokxAO-82" value="&lt;b&gt;&lt;font style=&quot;font-size: 14px&quot;&gt;PROTOCOL&lt;/font&gt;&lt;/b&gt;" style="text;html=1;strokeColor=none;fillColor=none;align=center;verticalAlign=middle;whiteSpace=wrap;rounded=0;" vertex="1" parent="1">
          <mxGeometry x="920" y="890" width="40" height="20" as="geometry" />
        </mxCell>
        <mxCell id="-ZquV43uJ-LFZKVokxAO-85" value="&lt;i&gt;&lt;font style=&quot;font-size: 14px&quot;&gt;This is a soundscape representative architecture highlighting the key top level components, views and controllers&lt;/font&gt;&lt;/i&gt;" style="text;html=1;strokeColor=none;fillColor=none;align=center;verticalAlign=middle;whiteSpace=wrap;rounded=0;" vertex="1" parent="1">
          <mxGeometry x="780" y="195" width="220" height="195" as="geometry" />
        </mxCell>
        <mxCell id="-ZquV43uJ-LFZKVokxAO-100" value="" style="swimlane;startSize=0;" vertex="1" parent="1">
          <mxGeometry x="1280" y="740" width="541.31" height="400" as="geometry" />
        </mxCell>
        <mxCell id="-ZquV43uJ-LFZKVokxAO-101" value="&lt;font style=&quot;font-size: 18px&quot;&gt;&lt;u&gt;Soundscape: What3Words MVC&lt;/u&gt;&lt;/font&gt;" style="text;html=1;strokeColor=none;fillColor=none;align=center;verticalAlign=middle;whiteSpace=wrap;rounded=0;" vertex="1" parent="-ZquV43uJ-LFZKVokxAO-100">
          <mxGeometry x="190" width="351.31" height="50" as="geometry" />
        </mxCell>
        <mxCell id="-ZquV43uJ-LFZKVokxAO-102" value="&lt;u&gt;What3WordsController&lt;/u&gt;" style="rounded=1;whiteSpace=wrap;html=1;strokeColor=#000000;fillColor=#FFFFFF;" vertex="1" parent="-ZquV43uJ-LFZKVokxAO-100">
          <mxGeometry x="210" y="290" width="130" height="62" as="geometry" />
        </mxCell>
        <mxCell id="-ZquV43uJ-LFZKVokxAO-103" value="&lt;u&gt;&lt;font style=&quot;font-size: 15px&quot;&gt;What3Words: View&lt;/font&gt;&lt;/u&gt;" style="rounded=1;whiteSpace=wrap;html=1;strokeColor=#000000;fillColor=#FFFFFF;" vertex="1" parent="-ZquV43uJ-LFZKVokxAO-100">
          <mxGeometry x="350" y="110" width="130" height="62" as="geometry" />
        </mxCell>
        <mxCell id="-ZquV43uJ-LFZKVokxAO-104" value="&lt;u&gt;&lt;font style=&quot;font-size: 15px&quot;&gt;CoreModels&lt;/font&gt;&lt;/u&gt;" style="rounded=1;whiteSpace=wrap;html=1;strokeColor=#000000;fillColor=#FFFFFF;" vertex="1" parent="-ZquV43uJ-LFZKVokxAO-100">
          <mxGeometry x="60.000000000000085" y="110" width="130" height="62" as="geometry" />
        </mxCell>
        <mxCell id="-ZquV43uJ-LFZKVokxAO-105" value="" style="endArrow=classic;html=1;" edge="1" parent="-ZquV43uJ-LFZKVokxAO-100" source="-ZquV43uJ-LFZKVokxAO-104" target="-ZquV43uJ-LFZKVokxAO-103">
          <mxGeometry width="50" height="50" relative="1" as="geometry">
            <mxPoint x="130" y="250" as="sourcePoint" />
            <mxPoint x="180" y="200" as="targetPoint" />
          </mxGeometry>
        </mxCell>
        <mxCell id="-ZquV43uJ-LFZKVokxAO-106" value="" style="endArrow=classic;html=1;exitX=0.404;exitY=-0.064;exitDx=0;exitDy=0;exitPerimeter=0;" edge="1" parent="-ZquV43uJ-LFZKVokxAO-100" source="-ZquV43uJ-LFZKVokxAO-102">
          <mxGeometry width="50" height="50" relative="1" as="geometry">
            <mxPoint x="110" y="222" as="sourcePoint" />
            <mxPoint x="160" y="172" as="targetPoint" />
            <Array as="points" />
          </mxGeometry>
        </mxCell>
        <mxCell id="-ZquV43uJ-LFZKVokxAO-107" value="&lt;b&gt;&lt;font style=&quot;font-size: 22px&quot;&gt;MICROPHONE&lt;/font&gt;&lt;/b&gt;" style="rounded=1;whiteSpace=wrap;html=1;fillColor=#dae8fc;strokeColor=#6c8ebf;" vertex="1" parent="1">
          <mxGeometry x="1260" y="1240" width="190" height="100" as="geometry" />
        </mxCell>
        <mxCell id="-ZquV43uJ-LFZKVokxAO-108" value="&lt;b&gt;&lt;font style=&quot;font-size: 22px&quot;&gt;VoiceAPI&lt;/font&gt;&lt;/b&gt;" style="rounded=1;whiteSpace=wrap;html=1;fillColor=#dae8fc;strokeColor=#6c8ebf;" vertex="1" parent="1">
          <mxGeometry x="1635" y="1240" width="190" height="100" as="geometry" />
        </mxCell>
        <mxCell id="-ZquV43uJ-LFZKVokxAO-109" value="" style="endArrow=classic;html=1;exitX=0;exitY=0.25;exitDx=0;exitDy=0;" edge="1" parent="1" source="-ZquV43uJ-LFZKVokxAO-102">
          <mxGeometry width="50" height="50" relative="1" as="geometry">
            <mxPoint x="1350" y="1050" as="sourcePoint" />
            <mxPoint x="1330" y="1240" as="targetPoint" />
            <Array as="points">
              <mxPoint x="1330" y="1046" />
            </Array>
          </mxGeometry>
        </mxCell>
        <mxCell id="-ZquV43uJ-LFZKVokxAO-110" value="" style="endArrow=classic;html=1;exitX=1;exitY=0.25;exitDx=0;exitDy=0;" edge="1" parent="1" source="-ZquV43uJ-LFZKVokxAO-102">
          <mxGeometry width="50" height="50" relative="1" as="geometry">
            <mxPoint x="1600" y="1050" as="sourcePoint" />
            <mxPoint x="1790" y="1240" as="targetPoint" />
            <Array as="points">
              <mxPoint x="1790" y="1046" />
            </Array>
          </mxGeometry>
        </mxCell>
        <mxCell id="-ZquV43uJ-LFZKVokxAO-111" value="" style="endArrow=classic;html=1;entryX=0;entryY=0.75;entryDx=0;entryDy=0;exitX=0.692;exitY=-0.02;exitDx=0;exitDy=0;exitPerimeter=0;" edge="1" parent="1" source="-ZquV43uJ-LFZKVokxAO-107" target="-ZquV43uJ-LFZKVokxAO-102">
          <mxGeometry width="50" height="50" relative="1" as="geometry">
            <mxPoint x="1410" y="1241" as="sourcePoint" />
            <mxPoint x="1500" y="1434.5" as="targetPoint" />
            <Array as="points">
              <mxPoint x="1390" y="1077" />
            </Array>
          </mxGeometry>
        </mxCell>
        <mxCell id="-ZquV43uJ-LFZKVokxAO-112" value="" style="endArrow=classic;html=1;entryX=1;entryY=0.75;entryDx=0;entryDy=0;" edge="1" parent="1" target="-ZquV43uJ-LFZKVokxAO-102">
          <mxGeometry width="50" height="50" relative="1" as="geometry">
            <mxPoint x="1690" y="1240" as="sourcePoint" />
            <mxPoint x="1740" y="1190" as="targetPoint" />
            <Array as="points">
              <mxPoint x="1690" y="1077" />
            </Array>
          </mxGeometry>
        </mxCell>
        <mxCell id="-ZquV43uJ-LFZKVokxAO-113" value="" style="endArrow=classic;html=1;exitX=0.5;exitY=1;exitDx=0;exitDy=0;" edge="1" parent="1" source="-ZquV43uJ-LFZKVokxAO-103">
          <mxGeometry width="50" height="50" relative="1" as="geometry">
            <mxPoint x="750" y="910" as="sourcePoint" />
            <mxPoint x="1580" y="1030" as="targetPoint" />
            <Array as="points" />
          </mxGeometry>
        </mxCell>
        <mxCell id="-ZquV43uJ-LFZKVokxAO-114" value="&lt;font style=&quot;font-size: 15px&quot;&gt;&lt;b&gt;&lt;i&gt;sampleArrived&lt;/i&gt;&lt;/b&gt;&lt;/font&gt;" style="text;html=1;strokeColor=none;fillColor=none;align=center;verticalAlign=middle;whiteSpace=wrap;rounded=0;" vertex="1" parent="1">
          <mxGeometry x="1400" y="1150" width="100" height="30" as="geometry" />
        </mxCell>
        <mxCell id="-ZquV43uJ-LFZKVokxAO-115" value="&lt;font style=&quot;font-size: 15px&quot;&gt;&lt;b&gt;&lt;i&gt;Start(), Stop()&lt;/i&gt;&lt;/b&gt;&lt;/font&gt;" style="text;html=1;strokeColor=none;fillColor=none;align=center;verticalAlign=middle;whiteSpace=wrap;rounded=0;" vertex="1" parent="1">
          <mxGeometry x="1230" y="1150" width="100" height="30" as="geometry" />
        </mxCell>
        <mxCell id="-ZquV43uJ-LFZKVokxAO-116" value="&lt;font style=&quot;font-size: 15px&quot;&gt;&lt;b&gt;&lt;i&gt;sendSuggestion()&lt;/i&gt;&lt;/b&gt;&lt;/font&gt;" style="text;html=1;strokeColor=none;fillColor=none;align=center;verticalAlign=middle;whiteSpace=wrap;rounded=0;" vertex="1" parent="1">
          <mxGeometry x="1570" y="1150" width="100" height="30" as="geometry" />
        </mxCell>
        <mxCell id="-ZquV43uJ-LFZKVokxAO-118" value="REST API" style="rounded=1;whiteSpace=wrap;html=1;fillColor=#f8cecc;strokeColor=#b85450;" vertex="1" parent="1">
          <mxGeometry x="230" y="960" width="510" height="50" as="geometry" />
        </mxCell>
        <mxCell id="-ZquV43uJ-LFZKVokxAO-120" value="" style="endArrow=classic;html=1;" edge="1" parent="1">
          <mxGeometry width="50" height="50" relative="1" as="geometry">
            <mxPoint x="280" y="810" as="sourcePoint" />
            <mxPoint x="280" y="960" as="targetPoint" />
          </mxGeometry>
        </mxCell>
        <mxCell id="-ZquV43uJ-LFZKVokxAO-123" value="" style="sketch=0;aspect=fixed;html=1;points=[];align=center;image;fontSize=12;image=img/lib/mscae/Spatial_Anchor.svg;" vertex="1" parent="1">
          <mxGeometry x="830" y="1320" width="76.8" height="80" as="geometry" />
        </mxCell>
        <mxCell id="-ZquV43uJ-LFZKVokxAO-124" value="&lt;font style=&quot;font-size: 17px&quot;&gt;&lt;b&gt;Spatial Anchor&lt;br&gt;&lt;/b&gt;&lt;/font&gt;" style="text;html=1;strokeColor=none;fillColor=none;align=center;verticalAlign=middle;whiteSpace=wrap;rounded=0;dashed=1;" vertex="1" parent="1">
          <mxGeometry x="847.5" y="1415" width="50" height="20" as="geometry" />
        </mxCell>
        <mxCell id="-ZquV43uJ-LFZKVokxAO-125" value="REST API" style="rounded=1;whiteSpace=wrap;html=1;direction=south;fillColor=#f8cecc;strokeColor=#b85450;" vertex="1" parent="1">
          <mxGeometry x="990" y="1207.5" width="50" height="222.5" as="geometry" />
        </mxCell>
        <mxCell id="-ZquV43uJ-LFZKVokxAO-126" value="" style="sketch=0;aspect=fixed;html=1;points=[];align=center;image;fontSize=12;image=img/lib/mscae/App_Configuration.svg;" vertex="1" parent="1">
          <mxGeometry x="1110" y="1340" width="76.53" height="75" as="geometry" />
        </mxCell>
        <mxCell id="-ZquV43uJ-LFZKVokxAO-127" value="&lt;font style=&quot;font-size: 17px&quot;&gt;&lt;b&gt;Anchor&lt;br&gt;Sharing Service&lt;br&gt;&lt;/b&gt;&lt;/font&gt;" style="text;html=1;strokeColor=none;fillColor=none;align=center;verticalAlign=middle;whiteSpace=wrap;rounded=0;dashed=1;" vertex="1" parent="1">
          <mxGeometry x="1120" y="1390" width="50" height="120" as="geometry" />
        </mxCell>
        <mxCell id="-ZquV43uJ-LFZKVokxAO-128" value="" style="endArrow=classic;startArrow=classic;html=1;" edge="1" parent="1">
          <mxGeometry width="50" height="50" relative="1" as="geometry">
            <mxPoint x="910" y="1377" as="sourcePoint" />
            <mxPoint x="1100" y="1377" as="targetPoint" />
          </mxGeometry>
        </mxCell>
        <mxCell id="-ZquV43uJ-LFZKVokxAO-129" value="" style="endArrow=classic;startArrow=classic;html=1;" edge="1" parent="1">
          <mxGeometry width="50" height="50" relative="1" as="geometry">
            <mxPoint x="592.62" y="1100" as="sourcePoint" />
            <mxPoint x="590" y="830" as="targetPoint" />
          </mxGeometry>
        </mxCell>
        <mxCell id="-ZquV43uJ-LFZKVokxAO-130" value="" style="endArrow=classic;startArrow=classic;html=1;" edge="1" parent="1">
          <mxGeometry width="50" height="50" relative="1" as="geometry">
            <mxPoint x="1160" y="800" as="sourcePoint" />
            <mxPoint x="1210" y="750" as="targetPoint" />
          </mxGeometry>
        </mxCell>
        <mxCell id="-ZquV43uJ-LFZKVokxAO-131" value="" style="endArrow=classic;startArrow=classic;html=1;" edge="1" parent="1">
          <mxGeometry width="50" height="50" relative="1" as="geometry">
            <mxPoint x="720" y="1340" as="sourcePoint" />
            <mxPoint x="650" y="1150" as="targetPoint" />
            <Array as="points">
              <mxPoint x="720" y="1150" />
            </Array>
          </mxGeometry>
        </mxCell>
        <mxCell id="-ZquV43uJ-LFZKVokxAO-132" value="" style="endArrow=classic;startArrow=classic;html=1;" edge="1" parent="1">
          <mxGeometry width="50" height="50" relative="1" as="geometry">
            <mxPoint x="870" y="1340" as="sourcePoint" />
            <mxPoint x="650" y="1130" as="targetPoint" />
            <Array as="points">
              <mxPoint x="870" y="1130" />
            </Array>
          </mxGeometry>
        </mxCell>
        <mxCell id="-ZquV43uJ-LFZKVokxAO-147" value="" style="swimlane;startSize=0;" vertex="1" parent="1">
          <mxGeometry x="360" y="1065" width="580" height="475" as="geometry" />
        </mxCell>
      </root>
    </mxGraphModel>
  </diagram>
</mxfile>
